<?xml version="1.0" encoding="UTF-8"?><svg id="Layer_1" xmlns="http://www.w3.org/2000/svg" xmlns:xlink="http://www.w3.org/1999/xlink" viewBox="0 0 124.85 18.13"><defs><style>.cls-1{fill:none;}.cls-2{clip-path:url(#clippath);}</style><clipPath id="clippath"><rect class="cls-1" x="93.54" y="-542.2" width="171.37" height="75.82"/></clipPath></defs><g class="cls-2"><image width="1441" height="1080" transform="translate(57.29 -578.26) scale(.77)" xlink:href="../9F038973-9995-4E07-B61C-F2385AB76F960.png"/></g><path d="m12.53,6.49c.27-.28.65-.44,1.07-.44h3.19c.74,0,1.34-.6,1.34-1.34V1.34c0-.74-.6-1.34-1.34-1.34h-3.36c-.74,0-1.34.6-1.34,1.34v3.19c0,.42-.17.8-.44,1.07-.27.28-.65.44-1.07.44h-3.02c-.84,0-1.51-.67-1.51-1.51V1.34c0-.74-.6-1.34-1.34-1.34H1.34C.6,0,0,.6,0,1.34v3.36c0,.74.6,1.34,1.34,1.34h3.19c.42,0,.8.17,1.07.44.28.27.44.65.44,1.07v3.02c0,.42-.17.8-.44,1.07-.27.28-.65.44-1.07.44H1.34c-.74,0-1.34.6-1.34,1.34v3.36c0,.74.6,1.34,1.34,1.34h3.36c.74,0,1.34-.6,1.34-1.34v-3.19c0-.42.17-.8.44-1.07.27-.28.65-.44,1.07-.44h3.02c.42,0,.8.17,1.07.44.28.27.44.65.44,1.07v3.19c0,.74.6,1.34,1.34,1.34h3.36c.74,0,1.34-.6,1.34-1.34v-3.36c0-.74-.6-1.34-1.34-1.34h-3.19c-.84,0-1.51-.67-1.51-1.51v-3.02c0-.42.17-.8.44-1.07Z"/><path d="m34.27,4.05v10.1h-2.02v-4.33h-2.89v4.33h-2.02V4.05h2.02v3.75h2.89v-3.75h2.02Z"/><path d="m38.18,14.15c-1.59,0-2.89-1.31-2.89-2.9v-1.72c0-1.59,1.3-2.89,2.89-2.89h1.15c1.6,0,2.89,1.28,2.89,2.89v1.72c0,1.6-1.3,2.9-2.89,2.9h-1.15Zm2.02-2.9v-1.72c0-.49-.38-.87-.87-.87h-1.15c-.49,0-.87.39-.87.87v1.72c0,.48.39.87.87.87h1.15c.48,0,.87-.39.87-.87Z"/><path d="m45.2,11.59v.14c0,.22.23.4.71.4h1.6c.33,0,.58-.06.58-.35,0-1.27-4.81.66-4.81-2.9,0-1.33,1.07-2.24,2.6-2.24h1.39c1.46,0,2.6,1.07,2.6,2.44v.13h-2.02v-.13c0-.23-.22-.42-.58-.42h-1.39c-.45,0-.58.13-.58.36,0,1.14,4.81-.76,4.81,2.8,0,1.41-1.02,2.32-2.6,2.32h-1.6c-1.56,0-2.73-1.02-2.73-2.43v-.14h2.02Z"/><path d="m58.04,9.54v4.62h-2.02v-4.62c0-.48-.39-.87-.87-.87h-.29l-1.73,1.17v4.32h-2.02V3.91h2.02v3.49l1.11-.75h.91c1.59,0,2.89,1.3,2.89,2.89Z"/><path d="m65.98,12.13v2.02h-6.93v-2.02h2.38v-3.46h-2.38v-2.02h4.4v5.49h2.53Zm-2.53-6.5h-2.02v-1.73h2.02v1.73Z"/><path d="m72.91,10.75v.43c0,.52.43.95.95.95h.97c.59,0,.97-.35.97-.81,0-1.63-4.76-1.65-4.76-4.59,0-1.57,1.26-2.69,2.97-2.69h.68c1.65,0,2.99,1.33,2.99,2.97v.29h-2.02v-.29c0-.52-.43-.95-.97-.95h-.68c-.64,0-.95.26-.95.66,0,1,4.76,1.52,4.76,4.59,0,1.6-1.3,2.83-2.99,2.83h-.97c-1.65,0-2.97-1.33-2.97-2.97v-.43h2.02Z"/><path d="m85.34,6.65l-3.93,10.68h-2.17l1.47-3.98-2.31-6.7h2.14l1.27,3.71,1.36-3.71h2.17Z"/><path d="m87.96,11.59v.14c0,.22.23.4.71.4h1.6c.33,0,.58-.06.58-.35,0-1.27-4.81.66-4.81-2.9,0-1.33,1.07-2.24,2.6-2.24h1.39c1.46,0,2.6,1.07,2.6,2.44v.13h-2.02v-.13c0-.23-.22-.42-.58-.42h-1.39c-.45,0-.58.13-.58.36,0,1.14,4.81-.76,4.81,2.8,0,1.41-1.03,2.32-2.6,2.32h-1.6c-1.56,0-2.73-1.02-2.73-2.43v-.14h2.02Z"/><path d="m97.96,8.67v2.6c0,.49.38.87.87.87h1.8v2.02h-1.8c-1.6,0-2.89-1.29-2.89-2.89v-2.6h-2.24v-2.02h2.24v-1.88h2.02v1.88h2.67v2.02h-2.67Z"/><path d="m108.48,9.54v1.05h-4.91v.66c0,.48.39.87.87.87h1.15c.48,0,.87-.39.87-.87v-.14h2.02v.14c0,1.6-1.3,2.9-2.89,2.9h-1.15c-1.59,0-2.89-1.31-2.89-2.9v-1.72c0-1.59,1.3-2.89,2.89-2.89h1.15c1.6,0,2.89,1.28,2.89,2.89Zm-2.02,0c0-.49-.38-.87-.87-.87h-1.15c-.49,0-.87.39-.87.87v.19h2.89v-.19Z"/><path d="m117.14,9.25v4.91h-2.02v-4.63l-.87.76v3.87h-2.02v-4.63l-.87.76v3.87h-2.02v-7.51h2.02v.97l1.11-.97h.01c.88,0,1.36.38,1.59,1.11l1.28-1.11h.01c1.34,0,1.76.9,1.76,2.6Z"/><path d="m119.94,11.59v.14c0,.22.23.4.71.4h1.6c.33,0,.58-.06.58-.35,0-1.27-4.81.66-4.81-2.9,0-1.33,1.07-2.24,2.6-2.24h1.39c1.46,0,2.6,1.07,2.6,2.44v.13h-2.02v-.13c0-.23-.22-.42-.58-.42h-1.39c-.45,0-.58.13-.58.36,0,1.14,4.81-.76,4.81,2.8,0,1.41-1.03,2.32-2.6,2.32h-1.6c-1.56,0-2.73-1.02-2.73-2.43v-.14h2.02Z"/></svg>