<?xml version="1.0" encoding="UTF-8"?><svg id="Layer_1" xmlns="http://www.w3.org/2000/svg" viewBox="0 0 18.13 18.13"><defs><style>.cls-1{fill:#00e745;}</style></defs><path class="cls-1" d="m12.53,6.49c.27-.28.65-.44,1.07-.44h3.19c.74,0,1.34-.6,1.34-1.34V1.34c0-.74-.6-1.34-1.34-1.34h-3.36c-.74,0-1.34.6-1.34,1.34v3.19c0,.42-.17.8-.44,1.07-.27.28-.65.44-1.07.44h-3.02c-.84,0-1.51-.67-1.51-1.51V1.34c0-.74-.6-1.34-1.34-1.34H1.34C.6,0,0,.6,0,1.34v3.36c0,.74.6,1.34,1.34,1.34h3.19c.42,0,.8.17,1.07.44.28.27.44.65.44,1.07v3.02c0,.42-.17.8-.44,1.07-.27.28-.65.44-1.07.44H1.34c-.74,0-1.34.6-1.34,1.34v3.36c0,.74.6,1.34,1.34,1.34h3.36c.74,0,1.34-.6,1.34-1.34v-3.19c0-.42.17-.8.44-1.07.27-.28.65-.44,1.07-.44h3.02c.42,0,.8.17,1.07.44.28.27.44.65.44,1.07v3.19c0,.74.6,1.34,1.34,1.34h3.36c.74,0,1.34-.6,1.34-1.34v-3.36c0-.74-.6-1.34-1.34-1.34h-3.19c-.84,0-1.51-.67-1.51-1.51v-3.02c0-.42.17-.8.44-1.07Z"/></svg>